# xmcd
#
# Track frame offsets:
#	150
#	12931
#	27337
#	37096
#	48701
#	59019
#	76484
#	91611
#	107881
#	118661
#	133673
#
# Disc length: 1979 seconds
#
# Revision: 0
# Processed by: cddbd v1.4PL0 Copyright (c) Steve Scherf et al.
# Submitted via: dBpowerAMP V4.0
#
DISCID=9507b90b
DTITLE=Patty Loveless - Bluegrass And White Snow
DYEAR=1900
DGENRE=Country
TTITLE0=Away In  A Manger
TTITLE1=Silent Night
TTITLE2=Joy To The World
TTITLE3=Carols Of The Bells (Instrumental)
TTITLE4=The First Noel
TTITLE5=The Little Drummer Boy
TTITLE6=Silver Bells
TTITLE7=O Little Town Of Bethlehem
TTITLE8=Christmas Time's A Comin'
TTITLE9=Santa Train
TTITLE10=Christmas Day At My House
EXTD=
EXTT0=
EXTT1=
EXTT2=
EXTT3=
EXTT4=
EXTT5=
EXTT6=
EXTT7=
EXTT8=
EXTT9=
EXTT10=
PLAYORDER=
